<svg width="24" height="24" viewBox="0 0 24 24" fill="none" xmlns="http://www.w3.org/2000/svg">
<path d="M19.4163 20.25L18.9634 19.1126C18.7344 18.5354 18.3785 18.0178 17.923 17.5959L17.8402 17.5196C17.1233 16.8545 16.1812 16.4844 15.2029 16.4844H8.71467C7.73638 16.4844 6.79432 16.8545 6.07613 17.5183L5.99331 17.5959C5.53781 18.0178 5.18325 18.5354 4.95291 19.1126L4.5 20.25" stroke="white" stroke-width="2.25" stroke-linecap="round" stroke-linejoin="round"/>
<path d="M15.1611 3.57655C16.9299 5.34529 16.9299 8.21296 15.1611 9.98169C13.3924 11.7504 10.5247 11.7504 8.756 9.98169C6.98726 8.21296 6.98726 5.34529 8.756 3.57655C10.5247 1.80782 13.3924 1.80782 15.1611 3.57655" stroke="white" stroke-width="2.25" stroke-linecap="round" stroke-linejoin="round"/>
</svg>
